<?xml version="1.0" encoding="utf-8"?>
<!-- Generator: Adobe Illustrator 19.0.0, SVG Export Plug-In . SVG Version: 6.00 Build 0)  -->
<svg version="1.1" id="Layer_1" xmlns="http://www.w3.org/2000/svg" xmlns:xlink="http://www.w3.org/1999/xlink" x="0px" y="0px"
	 viewBox="0 0 500 500" style="enable-background:new 0 0 500 500;" xml:space="preserve">
<style type="text/css">
	.st0{fill:#00749A;}
	.st1{fill:#464342;}
</style>
<g id="Layer_2">
	<g id="XMLID_2_">
		<path class="st0" d="M279.6,241.1H265v1.5c4.6,0,5.3,1,5.3,6.8v10.4c0,5.8-0.7,6.8-5.3,6.8c-3.5-0.5-5.9-2.4-9.1-5.9l-3.7-4.1
			c5-0.9,7.7-4.1,7.7-7.6c0-4.5-3.8-7.9-11-7.9h-14.3v1.5c4.6,0,5.3,1,5.3,6.8v10.4c0,5.8-0.7,6.8-5.3,6.8v1.5h16.2v-1.5
			c-4.6,0-5.3-1.1-5.3-6.8v-2.9h1.4l9,11.3h23.7c11.6,0,16.7-6.2,16.7-13.6C296.3,247.2,291.2,241.1,279.6,241.1z M245.5,254.3
			v-10.8h3.3c3.7,0,5.3,2.5,5.3,5.5c0,2.8-1.6,5.4-5.3,5.4L245.5,254.3L245.5,254.3z M279.8,265.6h-0.6c-2.9,0-3.3-0.7-3.3-4.5
			v-17.7c0,0,3.6,0,3.9,0c8.5,0,10,6.2,10,11C289.8,259.5,288.3,265.6,279.8,265.6z"/>
		<path id="XMLID_15_" class="st0" d="M189.3,257.3l5.6-16.6c1.6-4.8,0.9-6.2-4.3-6.2v-1.6h15.3v1.6c-5.1,0-6.3,1.2-8.4,7.2
			l-9.3,27.8h-1.1l-8.3-25.5l-8.5,25.5h-1.1l-9-27.8c-2-5.9-3.3-7.2-8-7.2v-1.6h18.1v1.6c-4.8,0-6.1,1.1-4.4,6.2l5.5,16.6l8.2-24.4
			h1.5L189.3,257.3z"/>
		<path class="st0" d="M216.9,269.2c-8.9,0-16.3-6.6-16.3-14.6c0-8,7.3-14.6,16.3-14.6c9,0,16.3,6.6,16.3,14.6
			C233.2,262.6,225.9,269.2,216.9,269.2z M216.9,242.5c-7.5,0-10.1,6.8-10.1,12c0,5.4,2.6,12,10.1,12c7.6,0,10.2-6.7,10.2-12
			C227.1,249.3,224.5,242.5,216.9,242.5z"/>
		<path class="st1" d="M316.4,266.5v1.6h-18.6v-1.6c5.5,0,6.4-1.4,6.4-9.5v-13c0-8.1-1-9.4-6.4-9.4v-1.6h16.8c8.4,0,13,4.3,13,10.1
			c0,5.6-4.6,10-13,10h-4.6v4C309.9,265.2,310.9,266.5,316.4,266.5z M314.6,235.9h-4.6V250h4.6c4.6,0,6.7-3.2,6.7-7
			C321.3,239.1,319.1,235.9,314.6,235.9z"/>
		<path class="st1" d="M383.5,260.5l-0.4,1.5c-0.7,2.7-1.6,3.7-7.4,3.7h-1.1c-4.2,0-5-1-5-6.8v-3.7c6.3,0,6.8,0.6,6.8,4.8h1.5v-12.1
			h-1.5c0,4.2-0.5,4.8-6.8,4.8v-9.1h4.5c5.8,0,6.7,1,7.4,3.7l0.4,1.5h1.3l-0.6-7.6h-23.9v1.5c4.6,0,5.3,1,5.3,6.8v10.4
			c0,5.3-0.6,6.6-4.2,6.8c-3.4-0.5-5.8-2.4-9-5.9l-3.7-4.1c5-0.9,7.7-4.1,7.7-7.6c0-4.5-3.8-7.9-11-7.9h-14.3v1.5
			c4.6,0,5.3,1,5.3,6.8v10.4c0,5.8-0.7,6.8-5.3,6.8v1.5h16.2v-1.5c-4.6,0-5.3-1.1-5.3-6.8v-2.9h1.4l9,11.3h33.4l0.5-7.6L383.5,260.5
			L383.5,260.5z M340.4,254.3v-10.8h3.3c3.7,0,5.3,2.5,5.3,5.5c0,2.8-1.6,5.4-5.3,5.4L340.4,254.3L340.4,254.3z"/>
		<path id="XMLID_8_" class="st1" d="M400,269.2c-3.3,0-6.1-1.7-7.3-2.8c-0.4,0.4-1.1,1.6-1.3,2.8h-1.5V258h1.6
			c0.7,5.4,4.4,8.5,9.2,8.5c2.6,0,4.7-1.5,4.7-3.9c0-2.1-1.9-3.7-5.2-5.3l-4.6-2.2c-3.3-1.5-5.7-4.2-5.7-7.8c0-3.9,3.7-7.2,8.7-7.2
			c2.7,0,5,1,6.3,2.1c0.4-0.3,0.8-1.2,1.1-2.2h1.5v9.6h-1.7c-0.6-3.8-2.7-7-7-7c-2.3,0-4.4,1.3-4.4,3.3c0,2.1,1.7,3.3,5.6,5l4.5,2.2
			c3.9,1.9,5.5,4.9,5.5,7.3C409.9,265.6,405.5,269.2,400,269.2z"/>
		<path id="XMLID_7_" class="st1" d="M425.1,269.2c-3.3,0-6.1-1.7-7.3-2.8c-0.4,0.4-1.1,1.6-1.3,2.8h-1.5V258h1.6
			c0.7,5.4,4.4,8.5,9.2,8.5c2.6,0,4.7-1.5,4.7-3.9c0-2.1-1.9-3.7-5.2-5.3l-4.6-2.2c-3.3-1.5-5.7-4.2-5.7-7.8c0-3.9,3.7-7.2,8.7-7.2
			c2.7,0,5,1,6.3,2.1c0.4-0.3,0.8-1.2,1.1-2.2h1.5v9.6h-1.7c-0.6-3.8-2.7-7-7-7c-2.3,0-4.4,1.3-4.4,3.3c0,2.1,1.7,3.3,5.6,5l4.5,2.2
			c3.9,1.9,5.5,4.9,5.5,7.3C435,265.6,430.5,269.2,425.1,269.2z"/>
		<g id="XMLID_3_">
			<path id="XMLID_6_" class="st1" d="M71,250c0,14.3,8.3,26.6,20.3,32.4l-17.2-47.1C72.1,239.8,71,244.8,71,250z"/>
			<path id="XMLID_5_" class="st1" d="M131.3,248.2c0-4.5-1.6-7.5-3-9.9c-1.8-3-3.5-5.5-3.5-8.4c0-3.3,2.5-6.4,6-6.4
				c0.2,0,0.3,0,0.5,0c-6.4-5.9-14.9-9.5-24.3-9.5c-12.6,0-23.6,6.5-30.1,16.2c0.8,0,1.6,0,2.3,0c3.8,0,9.6-0.5,9.6-0.5
				c1.9-0.1,2.2,2.7,0.2,3c0,0-2,0.2-4.1,0.3l13.1,39l7.9-23.6l-5.6-15.4c-1.9-0.1-3.8-0.3-3.8-0.3c-1.9-0.1-1.7-3.1,0.2-3
				c0,0,5.9,0.5,9.5,0.5c3.8,0,9.6-0.5,9.6-0.5c1.9-0.1,2.2,2.7,0.2,3c0,0-2,0.2-4.1,0.3l13,38.7l3.6-12
				C130.1,254.8,131.3,251.3,131.3,248.2z"/>
			<path id="XMLID_4_" class="st1" d="M107.6,253.1l-10.8,31.4c3.2,0.9,6.6,1.5,10.2,1.5c4.2,0,8.2-0.7,12-2
				c-0.1-0.2-0.2-0.3-0.3-0.5L107.6,253.1z"/>
			<path id="XMLID_19_" class="st1" d="M138.6,232.7c0.2,1.1,0.2,2.4,0.2,3.7c0,3.7-0.7,7.8-2.7,12.9l-11,31.8
				c10.7-6.2,17.9-17.8,17.9-31.1C143,243.7,141.4,237.9,138.6,232.7z"/>
			<path class="st1" d="M107,208c-23.1,0-42,18.8-42,42c0,23.1,18.8,42,42,42c23.1,0,42-18.8,42-42C149,226.9,130.1,208,107,208z
				 M107,290.1c-22.1,0-40.1-18-40.1-40.1c0-22.1,18-40,40.1-40c22.1,0,40,18,40,40C147,272.1,129.1,290.1,107,290.1z"/>
		</g>
	</g>
</g>
</svg>
